<svg width="25" height="20" viewBox="0 0 16 16" fill="none" xmlns="http://www.w3.org/2000/svg">
<path d="M14.485 11.3156C13.9924 11.0469 13.25 10.6406 13.2606 10.2094C13.3344 7.45 12.592 5.34688 11.1178 4.13438C10.78 3.85625 10.407 3.62812 10.0059 3.45312C10.2874 3.13125 10.4528 2.74062 10.4528 2.31875C10.4528 1.23125 9.355 0.34375 8.00389 0.34375C6.65278 0.34375 5.555 1.23125 5.555 2.31875C5.555 2.74062 5.72037 3.13125 6.00186 3.45312C5.60074 3.62812 5.22778 3.85625 4.89 4.13438C3.41574 5.35 2.67686 7.45 2.74723 10.2094C2.75778 10.6406 2.01537 11.0469 1.52278 11.3156C1.04426 11.5781 0.446115 11.9062 0.657226 12.4563C0.868337 13.0063 1.18148 13.1344 4.96037 13.1625C5.13278 14.3938 6.37834 15.6562 8.00389 15.6562C9.62945 15.6562 10.8715 14.3938 11.0474 13.1625C14.8263 13.1344 15.143 13.0063 15.3506 12.4563C15.5617 11.9062 14.967 11.5781 14.485 11.3156ZM8.00741 1.61875C8.48593 1.61875 8.87297 1.93125 8.87297 2.31875C8.87297 2.70312 8.48593 3.01875 8.00741 3.01875C7.52889 3.01875 7.14186 2.70625 7.14186 2.31875C7.14186 1.93437 7.52889 1.61875 8.00741 1.61875ZM8.00741 14.3813C7.33889 14.3813 6.73019 13.7656 6.56834 13.1719C6.98352 13.1719 9.0313 13.1719 9.44649 13.1719C9.28463 13.7656 8.67593 14.3813 8.00741 14.3813ZM3.26797 11.8594C3.83093 11.4625 4.35167 10.9219 4.33056 10.1844C4.26723 7.80937 4.86889 5.97812 6.02297 5.02812C6.57889 4.56875 7.24741 4.32812 8.00741 4.30937C8.76741 4.32812 9.43593 4.56875 9.99186 5.02812C11.1459 5.97812 11.7441 7.80937 11.6843 10.1844C11.6667 10.9219 12.1839 11.4625 12.7469 11.8594C11.4309 11.8938 4.58389 11.8938 3.26797 11.8594Z" fill="#F8F7F7"/>
</svg>
