<svg width="16" height="16" viewBox="0 0 16 16" fill="none" xmlns="http://www.w3.org/2000/svg">
<g clip-path="url(#clip0_10_263)">
<path d="M8 0C3.58876 0 0 3.58876 0 8C0 12.4112 3.58876 16 8 16C12.4112 16 16 12.4112 16 8C16 3.58876 12.4112 0 8 0ZM8 14.8571C4.21898 14.8571 1.14286 11.781 1.14286 8C1.14286 4.21898 4.21898 1.14286 8 1.14286C11.781 1.14286 14.8571 4.21898 14.8571 8C14.8571 11.781 11.781 14.8571 8 14.8571Z" fill="#F8F7F7"/>
<path d="M10.4516 5.54846C10.2284 5.32528 9.8666 5.32528 9.64343 5.54846L8 7.19188L6.3565 5.54839C6.13333 5.32522 5.77155 5.32522 5.54838 5.54839C5.3252 5.77157 5.3252 6.13335 5.54838 6.35652L7.19187 8.00001L5.54838 9.6435C5.3252 9.86668 5.3252 10.2285 5.54838 10.4516C5.65993 10.5632 5.80622 10.619 5.95244 10.619C6.09866 10.619 6.24489 10.5632 6.3565 10.4516L8 8.80814L9.64349 10.4516C9.75504 10.5632 9.90133 10.619 10.0476 10.619C10.1938 10.619 10.34 10.5632 10.4516 10.4516C10.6748 10.2285 10.6748 9.86668 10.4516 9.6435L8.80812 8.00001L10.4516 6.35652C10.6747 6.13341 10.6747 5.77157 10.4516 5.54846Z" fill="#F8F7F7"/>
</g>
<defs>
<clipPath id="clip0_10_263">
<rect width="16" height="16" fill="white"/>
</clipPath>
</defs>
</svg>
