<svg width="25" height="20" viewBox="0 0 19 16" fill="none" xmlns="http://www.w3.org/2000/svg">
<g clip-path="url(#clip0_2_110)">
<path d="M11.6885 2.38123C10.4885 2.38123 9.32046 2.68115 8.31075 3.24856C7.32891 3.80034 6.537 4.57973 6.02063 5.50245L7.00588 5.93739C7.89604 4.34661 9.69035 3.35843 11.6885 3.35843C14.5702 3.35843 16.9146 5.44062 16.9146 8C16.9146 10.5594 14.5702 12.6416 11.6885 12.6416C9.69039 12.6416 7.89607 11.6534 7.00588 10.0626L6.02063 10.4976C6.537 11.4203 7.32891 12.1997 8.31075 12.7514C9.32042 13.3189 10.4885 13.6188 11.6885 13.6188C15.1769 13.6188 18.0148 11.0982 18.0148 8.00003C18.0148 4.90184 15.1769 2.38123 11.6885 2.38123Z" fill="#F8F7F7"/>
<path d="M11.6885 8.48856V7.51139H2.10605L3.36738 6.39112L2.58941 5.70016L0 8.00001L2.58941 10.2998L3.36738 9.60886L2.10601 8.48856H11.6885Z" fill="#F8F7F7"/>
</g>
<defs>
<clipPath id="clip0_2_110">
<rect width="18.0148" height="16" fill="white"/>
</clipPath>
</defs>
</svg>
