<svg width="13" height="16" viewBox="0 0 13 16" fill="none" xmlns="http://www.w3.org/2000/svg">
<path d="M6.71363 0C3.51526 0 0.913147 2.50716 0.913147 5.58894C0.913147 8.57119 6.22612 15.5758 6.45228 15.8725C6.51338 15.9526 6.61046 16 6.71369 16C6.81693 16 6.914 15.9526 6.9751 15.8725C7.20126 15.5758 12.5142 8.57116 12.5142 5.58894C12.5142 2.50716 9.91209 0 6.71363 0ZM6.71363 15.1525C6.25217 14.528 5.24774 13.1389 4.25234 11.5682C2.49216 8.79053 1.56175 6.72297 1.56175 5.58894C1.56181 2.85181 3.87287 0.625 6.71363 0.625C9.55435 0.625 11.8655 2.85181 11.8655 5.58894C11.8655 6.72244 10.9359 8.78878 9.17722 11.5645C8.18159 13.136 7.17557 14.5273 6.71363 15.1525Z" fill="black"/>
<path d="M6.71362 2.8653C5.15497 2.8653 3.8869 4.08711 3.8869 5.58889C3.8869 7.09067 5.15497 8.31248 6.71362 8.31248C8.27226 8.31248 9.5403 7.09067 9.5403 5.58892C9.54036 4.08711 8.27229 2.8653 6.71362 2.8653ZM6.71362 7.68748C5.51265 7.68748 4.53557 6.74608 4.53557 5.58892C4.53557 4.43176 5.51265 3.4903 6.71362 3.4903C7.91458 3.4903 8.89163 4.43173 8.89163 5.58889C8.89163 6.74605 7.91462 7.68748 6.71362 7.68748Z" fill="black"/>
<path d="M2.86734 5.58896C2.86734 3.54546 4.59278 1.883 6.71362 1.883C6.89275 1.883 7.03795 1.74306 7.03795 1.5705C7.03795 1.39793 6.89275 1.258 6.71362 1.258C4.23511 1.258 2.21867 3.20087 2.21867 5.58896C2.21867 5.84 2.26557 6.13737 2.35804 6.47284C2.3966 6.61278 2.52783 6.70521 2.67131 6.70521C2.69888 6.70521 2.72687 6.70181 2.75476 6.69465C2.92789 6.65034 3.03096 6.47918 2.98497 6.3124C2.90694 6.02925 2.86734 5.78584 2.86734 5.58896Z" fill="black"/>
<path d="M3.63616 7.93674C3.55981 7.78064 3.36657 7.71367 3.2045 7.7873C3.04247 7.86089 2.97303 8.04708 3.04941 8.20324C3.19588 8.50267 3.36391 8.82455 3.54878 9.15992C3.60707 9.26561 3.71935 9.32589 3.83549 9.32589C3.8868 9.32589 3.93889 9.31411 3.98734 9.2893C4.14552 9.20833 4.20565 9.01914 4.12165 8.86674C3.94158 8.54008 3.77825 8.22721 3.63616 7.93674Z" fill="black"/>
<path d="M4.93268 10.2516C4.84121 10.1032 4.64224 10.0543 4.48821 10.1424C4.33419 10.2304 4.28346 10.4222 4.37486 10.5706C5.4037 12.2406 6.43855 13.6525 6.44886 13.6666C6.51207 13.7527 6.6122 13.7986 6.71387 13.7986C6.77864 13.7986 6.84406 13.7799 6.90098 13.7411C7.04719 13.6415 7.08183 13.4464 6.97837 13.3056C6.96821 13.2917 5.9477 11.8991 4.93268 10.2516Z" fill="black"/>
</svg>
