<svg width="18" height="16" viewBox="0 0 18 16" fill="none" xmlns="http://www.w3.org/2000/svg">
<g clip-path="url(#clip0_13_362)">
<path d="M7.41722 10.8322L12.42 10.8038V12.0721H5.62754V10.8322C6.15845 10.7691 6.42415 10.3292 6.42415 9.51031V8.9911H5.39552V7.86389H6.42415V6.68349V6.34141L6.51021 5.39177C6.70574 4.416 7.65906 3.92789 9.36969 3.92789C10.5424 3.92789 11.3315 4.08023 11.7399 4.3858C12.1482 4.69093 12.3531 5.28451 12.3531 6.16473L12.3466 6.56H10.7608L10.7543 6.38918C10.7543 5.90603 10.6762 5.59144 10.5185 5.45172C10.3614 5.3093 10.0129 5.23808 9.47493 5.23808C8.86169 5.23808 8.46455 5.32056 8.28399 5.48282C8.1025 5.64687 8.01128 5.99932 8.01128 6.54332V7.86479H10.2776V8.99155H8.01128V9.25747L8.01737 9.68293L7.9313 10.2549C7.86207 10.4482 7.6904 10.6263 7.41722 10.7912V10.8322ZM17.2109 8.0987C17.1552 12.4557 13.4313 16 8.90987 16L8.80602 15.9995C6.58833 15.9725 4.51425 15.1162 2.96546 13.5865C1.41668 12.0568 0.578439 10.0381 0.606038 7.9022C0.662638 3.54389 4.38654 0 8.90753 0L9.01137 0.000450704C11.2291 0.027493 13.3032 0.883831 14.8519 2.41352C16.4007 3.94321 17.2385 5.96237 17.2109 8.0987ZM3.79762 13.102C4.42163 13.6829 5.13264 14.1485 5.90539 14.4816L6.12524 13.9615C5.41376 13.6514 4.77012 13.225 4.21441 12.7117L3.79762 13.102ZM6.33901 14.6479C7.05142 14.903 7.80547 15.0517 8.58337 15.0846L8.59038 14.5257C7.87844 14.4946 7.1969 14.3567 6.55886 14.1287L6.33901 14.6479ZM9.05254 15.0914C9.93054 15.0752 10.7711 14.9075 11.5509 14.6145L11.3268 14.0998C10.6182 14.3626 9.8557 14.5145 9.06049 14.5312L9.05254 15.0914ZM11.9798 14.4383C12.6787 14.1264 13.3172 13.7122 13.8799 13.2146L13.4762 12.8158C12.9664 13.2647 12.3882 13.6383 11.7558 13.9241L11.9798 14.4383ZM15.228 8.07527C15.2715 4.71797 12.471 1.9529 8.98658 1.91144L8.90753 1.91099C5.46615 1.91099 2.63148 4.608 2.58938 7.92473C2.54634 11.282 5.34641 14.0475 8.83128 14.089L8.91034 14.0899C12.3508 14.0899 15.1855 11.3906 15.228 8.07527ZM2.55476 5.7289L2.0187 5.51797C1.75394 6.19358 1.59443 6.91651 1.55748 7.66963L2.13704 7.67685C2.1726 6.99538 2.31714 6.34051 2.55476 5.7289ZM1.54999 8.12169C1.56403 8.95685 1.72494 9.76676 2.02525 10.5275L2.56459 10.3103C2.29655 9.62794 2.14546 8.89465 2.12956 8.1289L1.54999 8.12169ZM14.0015 2.88135C13.3785 2.3049 12.6698 1.84293 11.9003 1.51346L11.6795 2.03358C12.3887 2.34006 13.0295 2.76327 13.5838 3.27301L14.0015 2.88135ZM11.4648 1.34761C10.7562 1.09476 10.0068 0.947831 9.2331 0.91538L9.22608 1.47425C9.93335 1.50625 10.6107 1.64237 11.245 1.86682L11.4648 1.34761ZM8.76439 0.90862C7.892 0.924845 7.0561 1.0907 6.2796 1.37961L6.5046 1.89521C7.20859 1.63561 7.96638 1.48552 8.75738 1.46839L8.76439 0.90862ZM5.84879 1.55538C5.15275 1.86546 4.51565 2.27561 3.95526 2.76823L4.35941 3.1671C4.86788 2.72315 5.44417 2.35132 6.07332 2.06963L5.84879 1.55538ZM15.2734 10.2414L15.8095 10.4527C16.0719 9.77487 16.2286 9.05194 16.2609 8.29656L15.6818 8.2889C15.6509 8.97172 15.5087 9.62659 15.2734 10.2414ZM16.266 7.84406C16.2478 7.01115 16.085 6.20079 15.7814 5.44225L15.2421 5.66085C15.5134 6.33961 15.6673 7.0729 15.6869 7.8382L16.266 7.84406ZM14.328 3.20225L13.9103 3.59392C14.3748 4.08338 14.7612 4.6391 15.0554 5.2471L15.5929 5.02896C15.2771 4.36687 14.8533 3.75211 14.328 3.20225ZM2.19411 5.09927L2.73111 5.3111C3.05294 4.63008 3.49264 4.01397 4.02449 3.48034L3.6194 3.08101C3.03235 3.66828 2.54587 4.34839 2.19411 5.09927ZM3.47112 12.7793L3.8879 12.3876C3.42388 11.8945 3.03844 11.3357 2.74608 10.7254L2.20815 10.9422C2.52483 11.607 2.94675 12.2258 3.47112 12.7793ZM15.6387 10.871L15.1027 10.6601C14.7827 11.3442 14.343 11.9644 13.8116 12.5007L14.2158 12.9001C14.8028 12.3096 15.2884 11.6264 15.6387 10.871Z" fill="black"/>
</g>
<defs>
<clipPath id="clip0_13_362">
<rect width="16.6058" height="16" fill="white" transform="translate(0.605789)"/>
</clipPath>
</defs>
</svg>
