<svg width="25" height="20" viewBox="0 0 18 16" fill="none" xmlns="http://www.w3.org/2000/svg">
<path d="M17.0296 14.2219L12.8356 10.4969C13.8594 9.3875 14.4717 7.97188 14.4717 6.425C14.4717 2.87813 11.2311 0 7.23759 0C3.24056 0 0 2.87812 0 6.42812C0 9.97812 3.24056 12.8562 7.23759 12.8562C8.97574 12.8562 10.5731 12.3125 11.8222 11.4031L16.0128 15.125C16.2943 15.375 16.7481 15.375 17.0296 15.125C17.3111 14.875 17.3111 14.4719 17.0296 14.2219ZM1.43556 6.42812C1.43556 3.58437 4.03222 1.27813 7.23407 1.27813C10.4359 1.27813 13.0326 3.58437 13.0326 6.42812C13.0326 9.27188 10.4359 11.5781 7.23407 11.5781C4.03222 11.5781 1.43556 9.27188 1.43556 6.42812Z" fill="#F8F7F7"/>
</svg>
